<svg id="svg" xmlns="http://www.w3.org/2000/svg" xmlns:xlink="http://www.w3.org/1999/xlink" width="400" height="60" viewBox="0, 0, 400,60"><g id="svgg"><path id="path0" d="M205.600 19.262 C 204.830 19.487,202.485 20.195,200.389 20.836 C 198.292 21.476,196.165 22.000,195.662 22.000 C 195.159 22.000,194.354 22.214,193.874 22.476 C 191.888 23.556,182.675 23.907,168.800 23.430 C 158.432 23.074,145.800 23.865,145.137 24.913 C 144.650 25.681,138.453 25.804,138.164 25.051 C 137.864 24.269,130.977 24.068,130.722 24.834 C 130.462 25.614,122.479 24.209,120.956 23.114 C 120.408 22.720,113.558 23.394,112.540 23.941 C 109.204 25.737,99.662 26.302,94.665 25.000 C 93.398 24.670,92.010 24.400,91.580 24.400 C 91.151 24.400,90.800 24.244,90.800 24.054 C 90.800 23.018,85.291 22.349,82.123 23.001 C 77.259 24.002,75.600 24.467,75.600 24.829 C 75.600 25.013,74.925 25.285,74.100 25.434 C 73.275 25.583,72.401 25.861,72.157 26.054 C 71.914 26.246,70.924 26.572,69.957 26.778 C 66.830 27.446,63.413 28.559,62.871 29.086 C 62.581 29.369,61.805 29.600,61.147 29.600 C 60.489 29.600,59.106 29.855,58.075 30.166 C 57.044 30.478,54.850 31.035,53.200 31.404 C 51.550 31.773,49.801 32.328,49.314 32.637 C 48.827 32.947,48.174 33.200,47.863 33.200 C 47.552 33.200,47.074 33.470,46.800 33.800 C 46.525 34.131,45.651 34.401,44.851 34.402 C 44.053 34.403,42.140 34.865,40.600 35.430 C 35.463 37.312,30.757 38.101,30.185 37.176 C 29.848 36.630,25.820 37.081,24.239 37.842 C 23.600 38.149,22.855 38.400,22.584 38.400 C 22.313 38.400,21.576 38.669,20.946 38.998 C 20.128 39.424,18.508 39.596,15.280 39.598 C 12.257 39.599,10.403 39.781,9.680 40.147 C 9.086 40.447,7.933 40.814,7.117 40.961 C 6.301 41.109,5.131 41.492,4.517 41.812 C 3.903 42.133,2.635 42.396,1.700 42.398 L 0.000 42.400 0.000 51.200 L 0.000 60.000 200.000 60.000 L 400.000 60.000 400.000 57.824 C 400.000 55.100,399.962 55.081,396.586 56.105 C 393.595 57.013,392.774 57.035,384.200 56.447 C 378.195 56.035,375.869 55.740,374.600 55.227 C 374.160 55.050,372.900 54.538,371.800 54.091 C 365.729 51.621,355.456 51.051,351.150 52.946 C 347.103 54.727,343.577 55.411,341.150 54.888 C 339.967 54.634,336.120 54.321,332.600 54.193 C 325.047 53.919,321.286 53.401,320.288 52.499 C 319.502 51.787,312.940 50.853,308.487 50.819 C 306.023 50.800,303.634 50.098,302.415 49.033 C 302.069 48.731,300.486 48.417,298.800 48.314 C 297.150 48.214,295.440 47.931,295.000 47.684 C 293.623 46.914,290.537 45.694,289.246 45.410 C 288.566 45.261,287.906 44.972,287.781 44.769 C 287.655 44.566,287.106 44.400,286.560 44.400 C 285.502 44.400,282.621 43.081,282.204 42.406 C 282.066 42.183,281.616 42.000,281.205 42.000 C 280.794 42.000,280.088 41.505,279.636 40.900 C 278.428 39.283,276.662 37.601,276.173 37.600 C 275.938 37.600,275.038 36.965,274.173 36.189 C 273.308 35.414,272.150 34.684,271.600 34.568 C 271.050 34.453,269.724 34.098,268.654 33.779 C 267.584 33.461,266.204 33.200,265.587 33.200 C 264.971 33.200,264.401 33.003,264.321 32.762 C 264.234 32.503,262.060 32.160,259.020 31.925 C 254.991 31.613,253.421 31.317,251.833 30.568 C 250.715 30.041,248.720 29.441,247.400 29.236 C 246.080 29.031,243.740 28.406,242.200 27.848 C 240.660 27.290,238.554 26.826,237.521 26.817 C 236.080 26.804,235.387 26.564,234.552 25.790 C 233.953 25.235,232.998 24.668,232.431 24.531 C 231.864 24.393,231.045 24.037,230.611 23.740 C 230.177 23.443,229.367 23.199,228.811 23.198 C 228.255 23.197,226.990 22.658,226.000 22.000 C 224.220 20.816,224.140 20.803,218.687 20.802 C 214.386 20.800,213.129 20.679,212.964 20.251 C 212.848 19.949,211.999 19.596,211.077 19.467 C 210.155 19.337,208.860 19.146,208.200 19.042 C 207.540 18.938,206.370 19.037,205.600 19.262 " stroke="none" fill="#000000" fill-rule="evenodd"></path></g></svg>