<?xml version="1.0" standalone="no"?>
<!DOCTYPE svg PUBLIC "-//W3C//DTD SVG 20010904//EN"
 "http://www.w3.org/TR/2001/REC-SVG-20010904/DTD/svg10.dtd">
<svg version="1.0" xmlns="http://www.w3.org/2000/svg"
 width="512.000000pt" height="512.000000pt" viewBox="0 0 512.000000 512.000000"
 preserveAspectRatio="xMidYMid meet">
<metadata>
Created by potrace 1.11, written by Peter Selinger 2001-2013
</metadata>
<g transform="translate(0.000000,512.000000) scale(0.100000,-0.100000)"
fill="#000000" stroke="none">
<path d="M2368 4729 c-10 -5 -18 -8 -18 -5 0 3 -11 1 -25 -4 -16 -6 -25 -6
-25 0 0 5 -7 7 -15 4 -8 -4 -13 -9 -11 -13 2 -3 -14 -7 -37 -8 -22 -2 -44 -9
-49 -15 -4 -7 -8 -9 -8 -5 0 4 -9 3 -20 -3 -15 -8 -20 -8 -20 2 -1 7 -7 2 -14
-11 -10 -18 -15 -20 -19 -10 -3 9 -6 10 -6 2 -1 -7 -8 -10 -16 -7 -8 4 -17 -1
-21 -10 -5 -12 -10 -13 -25 -5 -15 8 -19 6 -19 -7 0 -10 -5 -14 -15 -10 -8 3
-18 -1 -22 -8 -8 -12 -35 -26 -63 -32 -8 -2 -20 -11 -27 -20 -7 -10 -21 -19
-30 -20 -10 -2 -25 -12 -35 -23 -18 -23 -34 -29 -22 -8 4 6 -7 -2 -26 -20 -18
-18 -38 -30 -43 -26 -6 3 -7 1 -3 -5 4 -7 3 -12 -1 -12 -5 0 -24 -14 -43 -32
-19 -18 -39 -31 -44 -30 -5 2 -5 -5 -2 -15 4 -9 4 -14 0 -10 -10 9 -35 -13
-28 -24 3 -5 2 -8 -3 -7 -14 4 -85 -70 -78 -82 3 -5 -1 -10 -9 -10 -14 0 -20
-12 -17 -32 0 -5 -5 -7 -12 -5 -6 1 -11 -6 -11 -15 1 -10 -2 -15 -7 -12 -5 3
-9 -2 -9 -10 0 -8 -6 -19 -14 -23 -8 -4 -16 -14 -18 -22 -2 -8 -11 -23 -21
-33 -10 -11 -16 -26 -13 -34 3 -8 2 -13 -3 -10 -5 3 -14 -1 -21 -9 -9 -11 -9
-15 -1 -15 7 0 9 -5 6 -10 -4 -6 -11 -8 -16 -5 -5 4 -9 -2 -9 -12 0 -10 -8
-29 -17 -42 -9 -14 -11 -21 -5 -17 8 5 10 2 6 -8 -3 -9 -9 -14 -13 -12 -4 3
-7 -3 -8 -12 -2 -29 -8 -47 -16 -53 -5 -3 -10 -17 -12 -30 -2 -13 -8 -39 -13
-56 -7 -22 -7 -33 -1 -33 6 0 7 -5 4 -10 -4 -6 -11 -8 -16 -4 -5 3 -9 -7 -8
-23 1 -15 -2 -36 -6 -45 -4 -11 -3 -18 5 -18 7 0 6 -6 -4 -16 -13 -13 -16 -46
-16 -200 0 -146 3 -184 13 -178 7 5 7 2 -2 -10 -8 -9 -10 -16 -5 -14 8 3 16
-6 13 -14 -6 -18 -4 -48 3 -48 5 0 7 -4 3 -9 -3 -5 -1 -12 5 -16 6 -4 8 -11 5
-16 -4 -5 -1 -9 6 -9 8 0 8 -4 -1 -15 -9 -10 -9 -15 -1 -15 6 0 10 -3 9 -7 0
-5 2 -16 7 -26 4 -10 5 -21 1 -24 -3 -4 1 -15 11 -25 9 -10 13 -18 8 -18 -4 0
-1 -10 7 -22 8 -13 14 -31 12 -41 -1 -10 2 -14 9 -10 6 4 8 0 4 -10 -4 -11 -1
-17 8 -17 9 0 12 -6 9 -15 -4 -8 1 -17 9 -21 9 -3 14 -14 12 -25 -3 -12 0 -17
7 -13 7 5 9 0 5 -15 -3 -13 -3 -20 0 -17 8 8 43 -33 43 -50 0 -7 6 -17 13 -21
7 -4 19 -22 27 -39 8 -17 18 -32 23 -32 4 -1 7 -5 8 -9 0 -5 10 -13 22 -20 15
-8 17 -12 7 -13 -10 0 -3 -11 17 -29 18 -15 30 -31 26 -35 -3 -3 1 -6 10 -6
22 0 32 -42 17 -70 -8 -15 -18 -20 -31 -17 -10 3 -16 1 -13 -4 3 -5 -5 -13
-18 -18 -13 -6 -18 -10 -11 -10 21 -1 4 -26 -27 -39 -17 -8 -30 -20 -30 -27 0
-8 -12 -26 -27 -42 -16 -15 -27 -31 -25 -36 2 -5 -4 -7 -12 -4 -8 3 -17 -1
-20 -9 -3 -8 0 -14 7 -14 7 -1 5 -6 -5 -14 -10 -7 -18 -19 -18 -25 0 -17 -26
-41 -35 -33 -5 4 -5 2 -1 -5 4 -7 -2 -16 -12 -22 -14 -7 -18 -18 -15 -36 4
-17 0 -27 -11 -31 -9 -3 -14 -10 -11 -14 3 -4 -4 -19 -16 -31 -11 -13 -17 -18
-14 -11 6 11 3 12 -14 3 -11 -6 -24 -23 -27 -36 -4 -16 -13 -25 -25 -25 -10 0
-19 -4 -19 -10 0 -5 -8 -10 -17 -10 -13 0 -15 -3 -5 -8 16 -11 -17 -52 -42
-52 -9 0 -16 -5 -16 -11 0 -6 -6 -9 -12 -7 -7 3 -23 -5 -35 -17 -16 -18 -19
-26 -10 -35 9 -10 9 -12 -4 -7 -9 3 -16 -1 -17 -9 -1 -8 -3 -21 -4 -29 -1 -8
-5 -12 -9 -10 -4 3 -15 -7 -24 -21 -12 -18 -13 -24 -4 -19 8 3 6 0 -5 -9 -11
-9 -16 -22 -12 -31 3 -9 2 -14 -3 -11 -13 8 -24 -24 -22 -58 2 -16 -1 -26 -7
-22 -11 7 -54 -28 -45 -38 3 -3 1 -6 -7 -6 -10 0 -10 -3 0 -15 10 -12 9 -16
-4 -21 -9 -3 -13 -11 -9 -17 3 -6 1 -7 -5 -3 -6 4 -18 -5 -28 -19 -9 -13 -20
-23 -24 -20 -13 8 -18 -18 -9 -43 6 -14 5 -21 0 -17 -5 3 -13 -4 -16 -15 -4
-12 -20 -35 -37 -52 -17 -17 -31 -36 -32 -42 -3 -23 -46 -87 -55 -82 -4 3 -6
-6 -3 -20 3 -19 -3 -32 -29 -55 -25 -22 -33 -37 -31 -56 3 -18 0 -23 -9 -18
-7 5 -10 4 -6 -2 3 -5 -1 -22 -9 -38 -8 -15 -15 -39 -16 -51 -1 -13 -4 -21 -6
-19 -2 2 -16 -9 -32 -23 -18 -17 -25 -31 -20 -37 6 -7 0 -22 -15 -40 -24 -26
-29 -39 -26 -58 1 -4 -5 -15 -14 -23 -8 -9 -15 -12 -15 -7 0 4 -5 1 -10 -7 -5
-8 -10 -10 -10 -4 0 7 -8 11 -17 10 -24 -1 -53 -27 -46 -39 3 -6 1 -7 -4 -4
-6 4 -17 -1 -24 -10 -12 -14 -12 -16 1 -8 13 8 13 7 0 -10 -8 -11 -25 -29 -38
-41 -12 -12 -22 -32 -22 -45 0 -19 -2 -21 -10 -9 -8 12 -10 9 -7 -12 1 -15 7
-31 12 -35 4 -4 5 -2 1 5 -12 21 6 13 31 -14 16 -17 31 -24 43 -21 11 3 20 1
20 -5 0 -5 5 -6 10 -3 6 3 10 2 10 -3 0 -14 51 -62 61 -57 4 3 12 -3 18 -12 6
-10 11 -13 11 -7 0 13 30 15 30 2 0 -5 9 -4 19 2 14 7 20 7 23 -1 3 -8 10 -6
21 5 11 11 17 13 17 5 0 -7 3 -9 6 -6 4 3 15 2 25 -4 14 -7 19 -6 19 3 0 10 2
10 9 0 10 -16 79 -33 86 -22 4 7 80 -4 80 -11 0 -1 10 3 23 10 16 9 22 9 22 0
0 -7 4 -8 12 -2 7 5 23 8 35 7 13 0 23 2 23 6 0 5 9 6 20 3 11 -3 18 -8 16
-12 -2 -3 13 -6 35 -6 21 0 39 4 39 9 0 5 6 3 14 -3 8 -7 16 -8 19 -4 3 4 50
6 106 3 56 -3 101 -1 101 4 0 5 6 3 14 -3 8 -7 16 -8 19 -4 3 4 50 6 106 3 56
-3 101 -1 101 4 0 5 6 3 14 -3 8 -7 17 -8 20 -3 3 5 23 6 45 2 25 -4 44 -3 50
3 8 8 11 7 11 -2 0 -10 3 -11 13 -3 8 7 18 7 27 2 9 -5 19 -5 27 2 9 7 13 7
13 -2 0 -9 4 -9 13 -2 8 7 18 7 27 2 9 -5 19 -5 27 2 9 7 13 7 13 -1 0 -7 5
-9 12 -5 7 5 27 8 45 7 18 0 33 5 33 11 0 6 5 3 11 -7 8 -14 14 -16 25 -6 11
9 14 7 14 -12 0 -19 2 -21 10 -9 7 11 10 11 10 2 0 -7 4 -10 10 -7 5 3 10 1
10 -4 0 -6 7 -11 16 -11 9 0 12 5 8 13 -6 9 -4 9 7 0 10 -10 92 -13 340 -13
291 0 328 2 333 16 5 13 9 14 21 4 10 -8 15 -9 15 -2 0 7 7 9 17 5 12 -5 14
-3 8 7 -6 10 -3 12 13 8 13 -4 22 -1 22 5 0 8 4 7 9 -2 6 -9 14 -11 26 -3 10
5 27 7 38 4 12 -3 18 -1 14 5 -4 6 2 13 13 16 11 3 23 1 26 -4 4 -6 11 -6 19
1 10 8 15 8 20 0 5 -8 11 -8 21 1 11 9 14 9 14 -1 0 -9 3 -10 13 -1 8 6 17 8
21 4 10 -10 46 -11 46 -1 0 5 9 4 20 -2 12 -6 20 -7 20 -1 0 10 25 9 36 -2 4
-4 13 -2 20 4 8 6 14 7 18 0 4 -6 13 -8 21 -4 8 3 15 0 15 -7 0 -8 7 -10 18
-5 33 13 53 14 46 3 -5 -7 -1 -9 9 -5 10 4 17 1 17 -6 0 -7 9 -1 20 13 17 22
20 23 25 7 4 -9 11 -15 15 -12 5 3 11 1 15 -5 4 -6 13 -7 23 -1 11 6 24 6 34
0 10 -5 19 -5 22 0 3 4 23 5 45 1 25 -4 44 -3 50 3 8 8 11 7 11 -2 0 -10 3
-11 13 -3 8 7 18 7 27 2 9 -5 19 -5 27 2 9 7 13 7 13 -2 0 -9 4 -9 13 -2 8 7
18 7 27 2 9 -5 19 -5 27 2 9 7 13 7 13 -2 0 -9 4 -9 13 -2 8 7 18 7 27 2 9 -5
19 -5 27 2 9 7 13 7 13 -1 0 -7 5 -9 13 -4 18 11 36 12 43 2 4 -6 11 -6 19 1
7 6 16 7 19 2 3 -5 29 -5 58 -2 29 4 63 6 76 3 15 -2 21 0 17 7 -3 6 3 10 14
10 12 0 21 6 21 13 0 6 5 4 11 -6 8 -13 14 -15 30 -7 12 7 19 7 19 1 0 -7 9
-7 25 -1 16 6 25 6 25 0 0 -6 11 -3 25 6 15 10 37 14 55 12 17 -3 33 -1 36 4
3 5 12 4 20 -3 8 -6 14 -8 14 -3 0 5 29 9 65 9 49 0 65 -3 65 -14 0 -8 3 -11
7 -8 3 4 13 1 21 -6 13 -9 14 -9 8 0 -5 9 -2 11 8 7 9 -3 16 -11 16 -16 0 -6
6 -8 14 -5 7 3 19 0 25 -6 8 -8 11 -8 11 2 0 10 3 11 14 2 10 -8 16 -9 21 -1
4 6 12 7 24 0 12 -6 22 -5 29 2 9 9 12 9 12 -1 0 -10 3 -11 13 -2 8 6 16 8 20
5 3 -3 15 0 27 6 12 7 20 8 16 2 -8 -14 41 -21 53 -9 8 8 11 8 11 1 0 -17 37
-10 60 11 26 23 30 118 5 109 -8 -4 -15 -1 -15 5 0 22 -2 26 -14 41 -8 8 -12
26 -11 38 1 13 -4 26 -12 29 -7 3 -13 14 -13 24 0 10 -5 19 -11 19 -5 0 -8 4
-5 9 4 5 -5 8 -19 6 -14 -1 -23 0 -20 3 2 3 -1 12 -8 20 -10 13 -9 15 3 8 8
-4 5 1 -6 11 -16 14 -19 24 -13 35 6 11 4 18 -7 22 -11 4 -14 13 -11 27 3 12
3 18 0 15 -3 -3 -18 8 -33 24 -15 16 -30 26 -34 22 -4 -3 -4 1 0 11 4 12 -3
27 -25 47 -17 17 -31 34 -31 40 0 5 -16 25 -35 45 -20 19 -31 35 -25 35 14 0
-5 36 -37 68 -13 13 -22 30 -19 37 3 8 -7 25 -21 39 -14 14 -23 26 -19 26 4 0
2 9 -4 19 -7 14 -6 21 3 24 9 4 8 6 -2 6 -26 2 -61 51 -61 85 0 21 -6 36 -16
40 -11 4 -13 10 -6 23 6 10 6 26 2 39 -5 12 -6 25 -3 28 4 3 1 6 -6 6 -7 0 -9
4 -6 10 3 5 2 10 -3 10 -6 0 -8 9 -5 20 3 12 0 20 -6 20 -7 0 -10 4 -7 9 4 5
0 12 -6 14 -10 4 -10 6 0 6 9 1 8 7 -4 26 -9 14 -14 31 -11 39 3 8 -1 17 -9
20 -9 3 -14 15 -12 28 2 14 -7 33 -25 51 -15 15 -25 32 -22 38 4 5 -1 12 -10
15 -11 5 -13 10 -5 18 7 9 4 18 -8 32 -10 11 -17 25 -15 31 2 6 -5 18 -16 25
-12 8 -19 17 -16 20 3 3 -15 26 -40 52 -25 27 -45 52 -45 56 0 4 -13 22 -30
40 -16 18 -30 38 -30 44 0 17 -46 56 -56 48 -4 -4 -4 1 -1 10 4 11 2 17 -6 15
-7 -1 -11 4 -9 11 2 11 -11 17 -33 12 -5 -1 -7 1 -3 5 8 9 -14 35 -24 28 -4
-2 -6 9 -4 25 3 30 -20 62 -45 62 -16 0 -39 26 -31 35 4 5 -1 5 -10 2 -12 -4
-18 -1 -18 8 0 8 -5 15 -11 15 -6 0 -9 6 -6 13 3 8 -6 22 -19 32 -13 9 -21 21
-18 26 3 5 1 9 -5 9 -6 0 -7 8 -2 22 6 16 3 28 -10 41 -10 11 -15 26 -12 34 3
8 -4 21 -16 29 -12 9 -18 20 -15 26 5 7 -2 9 -20 6 -29 -6 -45 6 -21 16 8 3
15 10 15 16 0 10 8 22 38 56 8 8 11 22 8 31 -5 12 -4 13 7 5 14 -12 15 -11 19
37 1 11 5 18 9 15 4 -2 13 4 20 13 12 14 12 16 0 8 -15 -9 -15 -9 27 59 13 21
18 35 12 31 -13 -8 9 36 24 46 5 4 5 12 2 18 -4 6 -3 11 3 11 5 0 8 9 6 20 -2
11 2 20 8 20 7 0 6 4 -3 10 -13 8 -13 10 2 10 11 0 15 5 12 15 -4 8 -1 15 5
15 8 0 9 6 3 18 -11 20 -5 45 9 36 5 -3 9 7 8 23 -1 15 2 36 6 46 4 10 3 17
-5 17 -7 0 -6 6 4 16 13 13 16 46 16 200 0 123 -4 184 -11 184 -5 0 -8 4 -4 9
3 5 1 12 -5 16 -6 4 -7 12 -1 24 7 12 5 26 -4 44 -8 15 -11 27 -8 27 3 0 0 7
-7 15 -10 12 -10 15 0 15 10 0 9 5 -2 18 -9 9 -14 25 -13 35 2 9 -1 17 -6 17
-5 0 -9 9 -9 21 0 13 -4 18 -12 13 -10 -5 -10 -4 -1 6 14 15 6 43 -10 33 -6
-4 -8 0 -4 9 3 9 3 19 -1 23 -4 4 -7 10 -7 13 -1 4 -9 22 -18 40 -10 17 -15
32 -11 32 3 0 -4 9 -17 21 -13 11 -17 17 -9 13 12 -7 13 -5 3 8 -7 8 -9 19 -5
23 4 5 2 5 -4 2 -11 -6 -23 9 -20 24 0 3 -6 13 -14 22 -32 35 -41 47 -34 47 4
0 -8 14 -27 31 -19 18 -27 29 -19 25 8 -4 6 0 -4 8 -11 9 -16 16 -12 16 9 0
-136 145 -149 149 -5 1 -13 11 -17 22 -4 10 -15 19 -23 19 -10 0 -13 5 -9 12
4 6 3 8 -3 5 -6 -4 -23 5 -39 18 -16 14 -33 25 -37 25 -5 0 -5 6 -1 13 4 6 4
9 -1 5 -4 -4 -17 -2 -29 4 -11 7 -24 11 -28 10 -5 -1 -8 5 -8 13 0 8 -4 16
-10 16 -5 1 -14 2 -20 3 -5 0 -17 8 -27 16 -19 17 -27 20 -44 20 -5 0 -8 4 -5
9 4 5 -3 7 -14 4 -12 -3 -20 0 -20 6 0 7 -4 10 -9 7 -5 -3 -24 2 -42 11 -19
10 -43 19 -54 20 -10 2 -22 7 -25 11 -3 4 -11 7 -17 8 -30 2 -34 5 -28 14 3 6
2 10 -4 10 -5 0 -12 -4 -15 -9 -9 -14 -46 0 -47 18 0 12 -2 11 -9 -4 -5 -12
-9 -14 -9 -6 -1 8 -4 11 -8 8 -3 -4 -12 -2 -20 4 -10 9 -13 8 -13 -1 0 -9 -3
-10 -13 -1 -10 8 -17 7 -26 -2 -10 -9 -12 -9 -9 3 3 13 -24 15 -182 17 -113 2
-192 -1 -202 -8z"/>
</g>
</svg>
