<?xml version="1.0" standalone="no"?>
<!DOCTYPE svg PUBLIC "-//W3C//DTD SVG 20010904//EN"
 "http://www.w3.org/TR/2001/REC-SVG-20010904/DTD/svg10.dtd">
<svg version="1.0" xmlns="http://www.w3.org/2000/svg"
 width="551.000000pt" height="551.000000pt" viewBox="0 0 551.000000 551.000000"
 preserveAspectRatio="xMidYMid meet">
<metadata>
Created by potrace 1.11, written by Peter Selinger 2001-2013
</metadata>
<g transform="translate(0.000000,551.000000) scale(0.100000,-0.100000)"
fill="#000000" stroke="none">
<path d="M1378 4295 c-899 -121 -1504 -991 -1307 -1880 94 -424 372 -797 754
-1013 233 -131 494 -199 765 -200 93 0 145 4 270 23 174 26 405 119 575 230
108 71 144 100 252 207 l92 91 53 -58 c75 -83 210 -193 314 -257 329 -203 714
-277 1093 -209 478 85 886 388 1109 823 53 103 104 239 126 336 l14 62 -378 0
-379 0 -31 -62 c-105 -208 -284 -354 -517 -424 -118 -35 -296 -37 -418 -5
-675 180 -843 1041 -285 1458 72 54 185 107 285 134 112 30 289 30 400 0 243
-65 440 -226 542 -443 l22 -48 380 0 379 0 -14 59 c-102 438 -420 832 -831
1032 -108 52 -295 113 -393 129 -41 6 -86 14 -100 16 -49 10 -266 11 -345 2
-350 -38 -671 -189 -921 -433 l-108 -104 -90 89 c-236 234 -512 378 -836 436
-113 21 -351 25 -472 9z m363 -735 c237 -43 466 -215 575 -432 l34 -68 -761 0
-760 0 6 23 c25 82 141 233 242 313 186 148 426 207 664 164z m724 -1200 c20
-74 46 -153 70 -212 7 -17 -7 -18 -202 -18 l-210 0 -80 -54 c-336 -224 -772
-176 -1050 118 -66 69 -143 183 -158 234 l-6 22 807 -2 807 -3 22 -85z"/>
</g>
</svg>
