<svg id="svg" xmlns="http://www.w3.org/2000/svg" xmlns:xlink="http://www.w3.org/1999/xlink" width="400" height="60" viewBox="0, 0, 400,60"><g id="svgg"><path id="path0" d="M198.400 12.892 C 196.148 13.801,195.685 13.929,193.000 14.386 C 190.216 14.859,189.624 15.062,185.800 16.848 C 184.327 17.536,182.956 17.809,180.600 17.884 C 171.453 18.176,159.837 19.266,157.227 20.077 C 155.725 20.545,152.541 21.064,148.200 21.550 C 146.660 21.722,144.824 22.164,144.120 22.532 C 142.503 23.376,139.054 23.397,136.750 22.576 C 135.788 22.234,133.650 21.795,132.000 21.602 C 129.156 21.269,127.760 20.806,125.000 19.282 C 124.076 18.772,122.810 18.628,119.500 18.659 C 117.135 18.681,115.200 18.585,115.200 18.447 C 115.200 17.432,112.682 17.164,108.865 17.770 C 103.497 18.624,99.191 18.296,97.000 16.866 C 94.641 15.327,93.135 14.556,91.900 14.254 C 91.295 14.106,90.800 13.808,90.800 13.592 C 90.800 12.969,89.710 13.138,89.455 13.800 C 89.329 14.130,88.894 14.400,88.489 14.400 C 88.084 14.400,87.404 14.664,86.976 14.987 C 86.549 15.310,85.536 15.580,84.724 15.587 C 83.912 15.594,83.139 15.775,83.007 15.989 C 82.614 16.624,79.185 18.000,77.995 18.000 C 77.388 18.000,76.376 18.269,75.746 18.598 C 75.116 18.926,74.218 19.196,73.750 19.198 C 73.283 19.199,72.132 19.471,71.194 19.802 C 69.552 20.381,69.401 20.364,67.243 19.342 C 64.510 18.049,61.875 17.675,60.938 18.448 C 60.418 18.878,60.233 18.889,60.102 18.500 C 59.915 17.947,58.400 17.801,58.400 18.337 C 58.400 18.522,57.635 18.900,56.700 19.178 C 55.765 19.456,54.750 19.887,54.444 20.137 C 54.135 20.389,52.177 20.633,50.044 20.684 C 43.889 20.833,40.403 21.064,40.125 21.342 C 39.983 21.484,39.259 21.600,38.517 21.600 C 37.732 21.600,36.817 21.926,36.331 22.379 C 35.564 23.093,34.766 23.168,26.732 23.279 C 19.769 23.375,17.899 23.514,17.626 23.958 C 17.350 24.404,15.565 24.524,8.643 24.558 L 0.004 24.600 0.002 42.300 L 0.000 60.000 200.000 60.000 L 400.000 60.000 400.000 50.049 C 400.000 41.830,399.899 40.014,399.418 39.615 C 398.255 38.650,386.342 39.584,381.400 41.028 C 378.480 41.881,374.038 42.846,372.200 43.026 C 371.320 43.112,368.435 43.460,365.790 43.798 C 363.144 44.137,355.314 44.679,348.390 45.002 C 341.465 45.326,334.990 45.797,334.000 46.050 C 331.030 46.806,319.725 46.974,318.662 46.277 C 317.595 45.578,310.551 43.200,309.547 43.200 C 308.476 43.200,306.021 41.873,306.010 41.287 C 306.004 41.006,305.685 40.673,305.300 40.549 C 304.915 40.424,303.700 39.853,302.600 39.278 C 300.844 38.362,299.966 38.206,295.400 38.003 C 292.523 37.874,289.810 37.554,289.326 37.285 C 288.846 37.018,287.743 36.800,286.875 36.800 C 283.731 36.800,278.118 35.238,275.000 33.496 C 274.560 33.250,273.481 32.697,272.603 32.268 C 271.725 31.839,270.333 31.063,269.511 30.544 C 268.688 30.024,266.824 29.208,265.368 28.731 C 263.913 28.253,262.630 27.623,262.518 27.331 C 262.406 27.039,262.083 26.800,261.801 26.800 C 260.691 26.800,258.002 25.286,256.066 23.571 C 254.915 22.553,253.110 21.450,251.915 21.036 C 250.752 20.633,248.842 19.863,247.670 19.326 C 245.066 18.131,242.677 17.718,235.279 17.184 C 230.843 16.864,228.957 16.544,226.879 15.758 C 224.717 14.939,223.235 14.703,219.200 14.534 C 215.201 14.367,213.840 14.152,212.400 13.462 C 210.382 12.496,200.392 12.089,198.400 12.892 " stroke="none" fill="#000000" fill-rule="evenodd"></path></g></svg>