<svg id="svg" xmlns="http://www.w3.org/2000/svg" xmlns:xlink="http://www.w3.org/1999/xlink" width="400" height="60" viewBox="0, 0, 400,60"><g id="svgg"><path id="path0" d="M7.112 16.798 C 5.854 16.960,4.356 17.399,3.783 17.775 C 2.939 18.328,2.506 18.376,1.511 18.029 C 0.834 17.793,0.217 17.600,0.140 17.600 C 0.063 17.600,0.000 27.140,0.000 38.800 L 0.000 60.000 200.000 60.000 L 400.000 60.000 399.994 50.500 C 399.986 38.766,400.601 39.760,393.740 40.389 C 386.328 41.069,380.195 40.556,374.572 38.787 C 373.896 38.574,371.668 38.400,369.621 38.400 C 366.267 38.400,365.649 38.277,363.383 37.162 C 361.222 36.098,360.198 35.873,356.133 35.568 C 349.713 35.086,349.688 35.080,344.875 32.758 C 340.947 30.864,340.503 30.738,338.818 31.040 C 335.108 31.704,327.970 31.204,326.800 30.197 C 326.470 29.913,324.680 29.373,322.821 28.998 C 320.963 28.622,319.073 28.077,318.621 27.785 C 317.755 27.226,313.037 26.161,309.000 25.612 C 306.685 25.297,304.265 24.352,303.784 23.575 C 303.657 23.369,300.904 23.200,297.666 23.200 C 291.943 23.200,291.713 23.167,289.390 22.013 C 288.075 21.359,286.654 20.819,286.231 20.813 C 285.809 20.806,285.119 20.489,284.700 20.109 C 283.701 19.206,281.099 19.206,280.100 20.109 C 279.681 20.489,279.036 20.800,278.669 20.800 C 278.301 20.800,278.000 20.972,278.000 21.182 C 278.000 21.392,277.325 21.676,276.500 21.813 C 274.746 22.105,274.732 22.110,272.437 23.405 C 271.467 23.952,270.383 24.400,270.028 24.400 C 269.673 24.400,268.446 25.016,267.302 25.769 C 266.159 26.523,264.814 27.269,264.313 27.428 C 263.813 27.586,263.222 27.943,263.002 28.219 C 262.781 28.496,261.520 28.826,260.200 28.954 C 254.961 29.462,252.222 29.935,252.081 30.357 C 252.000 30.601,251.332 30.800,250.597 30.800 C 249.639 30.800,248.914 31.148,248.031 32.031 C 246.747 33.314,246.478 34.000,247.259 34.000 C 247.793 34.000,247.452 41.585,246.743 45.455 C 246.507 46.745,246.180 48.700,246.016 49.800 C 245.233 55.048,243.976 56.383,239.800 56.403 C 238.040 56.412,235.880 56.595,235.000 56.810 C 234.053 57.041,224.013 57.201,210.395 57.201 C 194.813 57.201,186.940 57.343,185.995 57.640 C 181.826 58.952,150.438 59.995,149.080 58.867 C 148.552 58.428,144.257 58.393,124.720 58.667 C 111.674 58.850,99.470 58.985,97.600 58.967 C 88.486 58.877,68.218 57.963,65.223 57.507 L 61.847 56.992 60.323 54.056 C 59.485 52.441,58.800 50.867,58.800 50.560 C 58.800 50.252,58.620 50.000,58.400 50.000 C 58.180 50.000,58.000 49.676,58.000 49.280 C 58.000 48.884,57.856 48.389,57.681 48.180 C 57.505 47.971,57.030 46.810,56.624 45.600 C 56.218 44.390,55.561 43.038,55.163 42.596 C 54.765 42.153,54.313 40.997,54.158 40.027 C 54.003 39.057,53.274 37.088,52.538 35.651 C 51.802 34.214,51.200 32.771,51.200 32.445 C 51.200 32.119,50.851 31.121,50.423 30.226 C 49.996 29.332,49.272 27.638,48.815 26.462 C 48.357 25.287,47.716 24.059,47.391 23.734 C 47.066 23.409,46.800 22.706,46.800 22.171 C 46.800 21.529,46.563 21.186,46.100 21.158 C 45.715 21.134,43.510 20.940,41.200 20.726 C 37.152 20.350,31.218 20.249,26.200 20.470 C 24.175 20.559,23.460 20.389,21.628 19.388 C 19.569 18.262,19.229 18.203,15.125 18.261 C 10.865 18.322,10.792 18.307,10.555 17.361 C 10.422 16.833,10.108 16.424,9.857 16.452 C 9.605 16.481,8.371 16.637,7.112 16.798 " stroke="none" fill="#000000" fill-rule="evenodd"></path></g></svg>