<svg id="svg" xmlns="http://www.w3.org/2000/svg" xmlns:xlink="http://www.w3.org/1999/xlink" width="400" height="60" viewBox="0, 0, 400,60"><g id="svgg"><path id="path0" d="M130.360 4.687 C 127.150 6.855,126.504 7.200,125.654 7.200 C 125.238 7.200,124.680 7.463,124.413 7.785 C 124.146 8.106,123.539 8.487,123.064 8.632 C 122.589 8.777,121.390 9.260,120.400 9.706 C 118.755 10.447,118.355 10.476,115.748 10.041 C 112.597 9.514,110.037 9.909,107.800 11.266 C 107.140 11.666,106.150 12.194,105.600 12.439 C 105.050 12.685,104.330 13.047,104.000 13.245 C 103.670 13.443,103.130 13.708,102.800 13.834 C 102.470 13.960,101.722 14.319,101.138 14.631 C 100.554 14.944,99.375 15.200,98.518 15.200 C 97.661 15.200,96.758 15.402,96.510 15.650 C 96.177 15.983,95.300 15.786,93.130 14.890 C 89.901 13.556,88.462 13.578,84.754 15.016 C 82.936 15.722,82.888 15.719,81.507 14.866 C 80.488 14.237,79.467 14.000,77.768 14.000 C 76.483 14.000,73.556 13.531,71.264 12.957 C 66.328 11.721,63.151 11.767,60.374 13.114 C 59.369 13.601,57.920 14.000,57.154 14.000 C 56.387 14.000,55.589 14.163,55.380 14.362 C 54.851 14.866,50.413 16.084,49.200 16.058 C 48.650 16.046,46.971 15.917,45.469 15.770 C 43.647 15.592,42.588 15.652,42.289 15.951 C 42.042 16.198,41.372 16.400,40.800 16.400 C 40.228 16.400,39.558 16.602,39.312 16.848 C 39.066 17.094,38.175 17.440,37.332 17.617 C 35.066 18.091,32.761 19.015,32.405 19.592 C 31.978 20.283,21.930 19.990,21.693 19.279 C 21.605 19.016,20.958 18.800,20.256 18.800 C 19.553 18.800,18.580 18.521,18.094 18.181 C 17.536 17.790,16.434 17.581,15.105 17.615 C 13.947 17.644,11.968 17.443,10.706 17.168 C 8.295 16.643,6.453 16.929,3.868 18.230 C 2.335 19.002,1.707 18.947,1.200 18.000 C 0.105 15.954,0.000 17.759,0.000 38.600 L 0.000 60.000 200.000 60.000 L 400.000 60.000 400.000 44.600 L 400.000 29.200 398.694 29.200 C 397.976 29.200,396.404 28.840,395.200 28.400 C 393.996 27.960,392.098 27.600,390.982 27.600 C 389.817 27.600,388.622 27.350,388.176 27.013 C 387.749 26.690,387.017 26.420,386.549 26.413 C 386.081 26.406,385.474 26.130,385.200 25.800 C 384.926 25.470,384.547 25.200,384.357 25.200 C 384.167 25.200,383.154 24.680,382.106 24.045 C 380.845 23.282,379.387 22.802,377.800 22.628 C 371.986 21.992,370.746 21.620,365.286 18.872 L 362.773 17.606 358.693 18.050 C 353.872 18.575,350.086 18.356,347.600 17.409 C 346.610 17.032,345.260 16.626,344.600 16.507 C 343.940 16.387,343.310 16.178,343.200 16.041 C 342.908 15.678,338.677 14.000,338.054 14.000 C 337.762 14.000,337.036 13.712,336.441 13.361 C 335.599 12.863,334.967 12.799,333.590 13.071 C 331.638 13.457,327.380 12.876,323.730 11.725 C 321.879 11.142,321.241 11.114,319.230 11.529 C 317.665 11.853,316.553 11.886,315.882 11.631 C 314.532 11.118,306.801 11.351,306.452 11.915 C 306.303 12.156,305.071 12.532,303.713 12.751 C 302.355 12.970,300.886 13.340,300.448 13.574 C 300.011 13.808,298.320 14.000,296.690 14.000 C 295.055 14.000,292.351 14.352,290.654 14.786 C 288.408 15.361,287.306 15.468,286.564 15.186 C 286.005 14.974,284.631 14.800,283.511 14.800 C 281.760 14.800,281.188 14.582,279.437 13.244 C 278.317 12.388,276.827 11.566,276.128 11.418 C 275.428 11.270,274.641 10.890,274.379 10.574 C 273.609 9.647,269.444 9.860,266.238 10.992 L 263.475 11.966 262.307 10.983 C 261.664 10.442,260.902 10.000,260.612 10.000 C 260.323 10.000,259.982 9.730,259.855 9.400 C 259.729 9.070,259.281 8.800,258.862 8.800 C 258.442 8.800,257.874 8.530,257.600 8.200 C 257.326 7.870,256.809 7.594,256.451 7.587 C 256.093 7.580,255.451 7.310,255.024 6.987 C 254.596 6.664,253.870 6.400,253.410 6.400 C 252.587 6.400,248.571 5.140,247.000 4.390 C 246.170 3.993,237.604 4.027,237.601 4.426 C 237.592 6.038,230.193 6.998,227.046 5.796 C 223.694 4.516,214.612 5.276,211.326 7.112 C 210.846 7.380,210.036 7.601,209.526 7.602 C 209.017 7.604,208.084 7.874,207.454 8.202 C 206.824 8.531,205.510 8.800,204.534 8.800 C 203.559 8.800,202.184 9.100,201.480 9.467 C 199.453 10.524,197.332 10.904,192.448 11.083 C 189.319 11.198,187.610 11.437,186.982 11.849 C 185.931 12.537,182.120 12.306,179.400 11.389 C 178.520 11.092,175.640 10.736,173.000 10.598 C 168.810 10.378,168.019 10.223,166.778 9.373 C 165.500 8.498,164.944 8.400,161.262 8.400 C 156.790 8.400,151.866 7.555,149.627 6.404 C 144.801 3.922,144.732 3.903,140.400 3.821 C 138.090 3.778,135.390 3.614,134.400 3.458 C 132.753 3.198,132.410 3.303,130.360 4.687 " stroke="none" fill="#000000" fill-rule="evenodd"></path></g></svg>